<?xml version="1.0" encoding="UTF-8"?><svg id="Ebene_2" xmlns="http://www.w3.org/2000/svg" xmlns:xlink="http://www.w3.org/1999/xlink" viewBox="0 0 281.82 312.58"><defs><style>.cls-1{fill:url(#Unbenannter_Verlauf);}</style><linearGradient id="Unbenannter_Verlauf" x1="-65.49" y1="190.47" x2="255.93" y2="190.47" gradientTransform="translate(0 346.76) scale(1 -1)" gradientUnits="userSpaceOnUse"><stop offset=".21" stop-color="#173760"/><stop offset=".22" stop-color="#24456d"/><stop offset=".27" stop-color="#41648b"/><stop offset=".32" stop-color="#577ca2"/><stop offset=".37" stop-color="#678db2"/><stop offset=".43" stop-color="#7198bc"/><stop offset=".5" stop-color="#749bbf"/><stop offset=".5" stop-color="#739abe"/><stop offset=".56" stop-color="#52779c"/><stop offset=".61" stop-color="#385b82"/><stop offset=".67" stop-color="#26476f"/><stop offset=".73" stop-color="#1b3b64"/><stop offset=".79" stop-color="#173760"/><stop offset=".82" stop-color="#204169"/><stop offset=".88" stop-color="#395b82"/><stop offset=".96" stop-color="#6086ab"/><stop offset="1" stop-color="#749bbf"/></linearGradient></defs><g id="Ebene_1-2"><path class="cls-1" d="m127.89,202.77c5.18.35,21.94,2.5,19.1,56.85-.42,16.76.17,37.04,8.55,36.63,8.8-.44,33.11-28.5,47.35-57.83,13.52-28.1,25.14-52.38,38.08-113.51,14.06-66.41,9.15-85.96-14.1-93.99-27.35-11.73-85.88,22.25-135.99,7.01,56.49-.45,110.94-41.94,145.03-37.61,16.43,1.16,33.88,9.27,42.09,31.68,7.86,23.28,3.8,71.06-14.09,125.63-12.42,35.11-33.5,74.53-50.14,97.58-20.71,28.1-41.44,53.03-60.76,57.37-13.46.54-16.84-27.1-16.36-53.44,1.01-32.52-1.44-42.86-9.2-42.95-4.61.42-8.88,16.32-9.3,46.49-1.37,22.32-3.02,49.9-14.17,49.89-32.1.01-62.44-50.71-73.75-77.11C21.85,215.76-1.35,163.8.06,97.61c-.08-28.1,11.56-49.83,37.46-59.14,12.79-4.6,28.71-4.59,47.8,3.5,57.42,24.39,99.44,16.77,99.44,16.77-16.93,7.05-47.9,17.72-73.65,9.95-25.35-7.64-27.83-13.13-46.1-13.41-27.77.5-31.43,32.71-32.69,67.49-.84,42.32,8.38,84.19,19.7,114.38,15.51,37.7,39.18,62.69,46.1,62.02,7.96.84,9.2-23.86,10.04-51.52,1.41-23.78,10.06-44.77,19.73-44.88Z"/></g></svg>