<?xml version="1.0" encoding="utf-8"?>
<!-- Generator: Adobe Illustrator 27.1.1, SVG Export Plug-In . SVG Version: 6.00 Build 0)  -->
<svg version="1.1" id="Ebene_1" xmlns="http://www.w3.org/2000/svg" xmlns:xlink="http://www.w3.org/1999/xlink" x="0px" y="0px"
	 viewBox="0 0 1750 350" style="enable-background:new 0 0 1750 350;" xml:space="preserve">
<style type="text/css">
	.st0{fill:url(#SVGID_1_);}
	.st1{fill:#173760;}
	.st2{fill:#457593;}
</style>
<linearGradient id="SVGID_1_" gradientUnits="userSpaceOnUse" x1="-62.2268" y1="157.8598" x2="259.186" y2="157.8598">
	<stop  offset="0.2062" style="stop-color:#173760"/>
	<stop  offset="0.2245" style="stop-color:#24456D"/>
	<stop  offset="0.272" style="stop-color:#41648B"/>
	<stop  offset="0.3218" style="stop-color:#577CA2"/>
	<stop  offset="0.3741" style="stop-color:#678DB2"/>
	<stop  offset="0.4307" style="stop-color:#7198BC"/>
	<stop  offset="0.4993" style="stop-color:#749BBF"/>
	<stop  offset="0.5005" style="stop-color:#739ABE"/>
	<stop  offset="0.5568" style="stop-color:#52779C"/>
	<stop  offset="0.6136" style="stop-color:#385B82"/>
	<stop  offset="0.6705" style="stop-color:#26476F"/>
	<stop  offset="0.7276" style="stop-color:#1B3B64"/>
	<stop  offset="0.7853" style="stop-color:#173760"/>
	<stop  offset="0.8223" style="stop-color:#204169"/>
	<stop  offset="0.8846" style="stop-color:#395B82"/>
	<stop  offset="0.9641" style="stop-color:#6086AB"/>
	<stop  offset="1" style="stop-color:#749BBF"/>
</linearGradient>
<path class="st0" d="M131.15,204.33c5.18,0.35,21.94,2.5,19.1,56.85c-0.42,16.76,0.17,37.04,8.55,36.63
	c8.8-0.44,33.11-28.5,47.35-57.83c13.52-28.1,25.14-52.38,38.08-113.51c14.06-66.41,9.15-85.96-14.1-93.99
	c-27.35-11.73-85.88,22.25-135.99,7.01c56.49-0.45,110.94-41.94,145.03-37.61c16.43,1.16,33.88,9.27,42.09,31.68
	c7.86,23.28,3.8,71.06-14.09,125.63c-12.42,35.11-33.5,74.53-50.14,97.58c-20.71,28.1-41.44,53.03-60.76,57.37
	c-13.46,0.54-16.84-27.1-16.36-53.44c1.01-32.52-1.44-42.86-9.2-42.95c-4.61,0.42-8.88,16.32-9.3,46.49
	c-1.37,22.32-3.02,49.9-14.17,49.89c-32.1,0.01-62.44-50.71-73.75-77.11c-8.38-19.7-31.58-71.66-30.17-137.85
	c-0.08-28.1,11.56-49.83,37.46-59.14c12.79-4.6,28.71-4.59,47.8,3.5C146,67.92,188.02,60.3,188.02,60.3
	c-16.93,7.05-47.9,17.72-73.65,9.95c-25.35-7.64-27.83-13.13-46.1-13.41c-27.77,0.5-31.43,32.71-32.69,67.49
	c-0.84,42.32,8.38,84.19,19.7,114.38c15.51,37.7,39.18,62.69,46.1,62.02c7.96,0.84,9.2-23.86,10.04-51.52
	C112.83,225.43,121.48,204.44,131.15,204.33z"/>
<g>
	<path class="st1" d="M380.26,81.92V5.82h34.57c8.26,0,15.55,1.58,21.85,4.73c6.31,3.15,11.23,7.56,14.78,13.21
		c3.55,5.65,5.33,12.36,5.33,20.11c0,7.68-1.78,14.37-5.33,20.06c-3.55,5.69-8.48,10.11-14.78,13.26
		c-6.31,3.15-13.59,4.73-21.85,4.73H380.26z M397.87,67.46h16.09c5.07,0,9.48-0.96,13.21-2.88c3.73-1.92,6.63-4.66,8.7-8.21
		c2.07-3.55,3.1-7.72,3.1-12.5c0-4.85-1.03-9.04-3.1-12.56c-2.07-3.51-4.96-6.23-8.7-8.15c-3.73-1.92-8.14-2.88-13.21-2.88h-16.09
		V67.46z"/>
	<path class="st1" d="M468.85,81.92V23.43h16.2v16.52l-2.28-4.78c1.74-4.13,4.53-7.27,8.37-9.4c3.84-2.14,8.52-3.21,14.02-3.21
		v15.65c-0.73-0.07-1.38-0.13-1.96-0.16c-0.58-0.04-1.2-0.05-1.85-0.05c-4.64,0-8.39,1.32-11.25,3.97
		c-2.86,2.65-4.29,6.76-4.29,12.34v27.61H468.85z"/>
	<path class="st1" d="M521.04,82.79c-2.9,0-5.38-1-7.45-2.99c-2.06-1.99-3.1-4.55-3.1-7.66c0-3.12,1.03-5.63,3.1-7.56
		c2.07-1.92,4.55-2.88,7.45-2.88c2.97,0,5.47,0.96,7.5,2.88c2.03,1.92,3.04,4.44,3.04,7.56c0,3.12-1.02,5.67-3.04,7.66
		C526.51,81.79,524.01,82.79,521.04,82.79z"/>
	<path class="st1" d="M600.07,83.22c-6.09,0-11.92-0.82-17.5-2.45c-5.58-1.63-10.07-3.75-13.48-6.36l5.98-13.26
		c3.26,2.32,7.12,4.22,11.58,5.71c4.46,1.49,8.97,2.23,13.53,2.23c3.48,0,6.29-0.34,8.42-1.03c2.14-0.69,3.71-1.65,4.73-2.88
		c1.01-1.23,1.52-2.64,1.52-4.24c0-2.03-0.8-3.64-2.39-4.84c-1.6-1.2-3.7-2.17-6.31-2.93c-2.61-0.76-5.49-1.48-8.64-2.17
		c-3.15-0.69-6.31-1.54-9.46-2.55c-3.15-1.01-6.03-2.32-8.64-3.91c-2.61-1.59-4.73-3.7-6.36-6.31c-1.63-2.61-2.45-5.94-2.45-10
		c0-4.35,1.18-8.32,3.53-11.9c2.35-3.59,5.91-6.45,10.65-8.59c4.75-2.14,10.71-3.21,17.88-3.21c4.78,0,9.49,0.56,14.13,1.69
		c4.64,1.12,8.73,2.81,12.28,5.05l-5.44,13.37c-3.55-2.03-7.1-3.53-10.65-4.51c-3.55-0.98-7.03-1.47-10.44-1.47
		c-3.41,0-6.2,0.4-8.37,1.2c-2.17,0.8-3.73,1.83-4.67,3.1c-0.94,1.27-1.41,2.74-1.41,4.4c0,1.96,0.8,3.53,2.39,4.73
		c1.59,1.2,3.7,2.16,6.31,2.88c2.61,0.73,5.49,1.45,8.64,2.17c3.15,0.73,6.31,1.56,9.46,2.5c3.15,0.94,6.03,2.21,8.64,3.8
		c2.61,1.59,4.73,3.7,6.36,6.31c1.63,2.61,2.45,5.91,2.45,9.89c0,4.28-1.2,8.19-3.59,11.74c-2.39,3.55-5.96,6.41-10.71,8.59
		C613.31,82.14,607.31,83.22,600.07,83.22z"/>
	<path class="st1" d="M671.49,82.79c-6.31,0-11.92-1.29-16.85-3.86c-4.93-2.57-8.79-6.14-11.58-10.71
		c-2.79-4.57-4.19-9.75-4.19-15.55c0-5.87,1.39-11.07,4.19-15.6c2.79-4.53,6.65-8.08,11.58-10.65c4.93-2.57,10.54-3.86,16.85-3.86
		c6.16,0,11.52,1.29,16.09,3.86c4.57,2.57,7.94,6.25,10.11,11.03l-13.15,7.07c-1.52-2.75-3.42-4.78-5.71-6.09
		c-2.28-1.3-4.77-1.96-7.45-1.96c-2.9,0-5.51,0.65-7.83,1.96c-2.32,1.3-4.15,3.15-5.49,5.54c-1.34,2.39-2.01,5.29-2.01,8.7
		c0,3.41,0.67,6.31,2.01,8.7c1.34,2.39,3.17,4.24,5.49,5.54c2.32,1.3,4.93,1.96,7.83,1.96c2.68,0,5.16-0.63,7.45-1.9
		c2.28-1.27,4.19-3.32,5.71-6.14L697.69,68c-2.17,4.71-5.54,8.35-10.11,10.93C683.01,81.5,677.65,82.79,671.49,82.79z"/>
	<path class="st1" d="M742.58,22.56c4.64,0,8.79,0.92,12.45,2.77c3.66,1.85,6.54,4.67,8.64,8.48c2.1,3.8,3.15,8.68,3.15,14.62v33.48
		h-16.96V51.04c0-4.71-1.03-8.19-3.1-10.44c-2.07-2.25-4.98-3.37-8.75-3.37c-2.68,0-5.09,0.56-7.23,1.69c-2.14,1.12-3.8,2.84-5,5.16
		c-1.2,2.32-1.79,5.29-1.79,8.91v28.92h-16.96V1.25h16.96v38.37l-3.8-4.89c2.1-3.91,5.11-6.92,9.02-9.02
		C733.13,23.61,737.58,22.56,742.58,22.56z"/>
	<path class="st1" d="M782.15,81.92V1.25h16.96v80.66H782.15z"/>
	<path class="st1" d="M843.9,82.79c-6.67,0-12.52-1.3-17.56-3.91c-5.04-2.61-8.93-6.18-11.69-10.71c-2.76-4.53-4.13-9.69-4.13-15.49
		c0-5.87,1.36-11.07,4.08-15.6c2.72-4.53,6.43-8.08,11.14-10.65c4.71-2.57,10.04-3.86,15.98-3.86c5.72,0,10.89,1.21,15.49,3.64
		c4.6,2.43,8.24,5.91,10.93,10.44c2.68,4.53,4.02,9.95,4.02,16.25c0,0.65-0.04,1.4-0.11,2.23c-0.07,0.83-0.15,1.61-0.22,2.34h-47.51
		v-9.89h38.59l-6.52,2.93c0-3.04-0.62-5.69-1.85-7.94c-1.23-2.25-2.93-4-5.11-5.27c-2.17-1.27-4.71-1.9-7.61-1.9
		c-2.9,0-5.45,0.64-7.66,1.9c-2.21,1.27-3.93,3.04-5.16,5.33c-1.23,2.28-1.85,4.98-1.85,8.1v2.61c0,3.19,0.71,6,2.12,8.43
		c1.41,2.43,3.41,4.28,5.98,5.54c2.57,1.27,5.6,1.9,9.08,1.9c3.11,0,5.85-0.47,8.21-1.41c2.35-0.94,4.51-2.35,6.47-4.24l9.02,9.78
		c-2.68,3.04-6.05,5.38-10.11,7.01C853.87,81.97,849.19,82.79,843.9,82.79z"/>
	<path class="st1" d="M883.47,81.92V23.43h16.2v16.52l-2.28-4.78c1.74-4.13,4.53-7.27,8.37-9.4c3.84-2.14,8.52-3.21,14.02-3.21
		v15.65c-0.73-0.07-1.38-0.13-1.96-0.16c-0.58-0.04-1.19-0.05-1.85-0.05c-4.64,0-8.39,1.32-11.25,3.97
		c-2.86,2.65-4.29,6.76-4.29,12.34v27.61H883.47z"/>
	<path class="st1" d="M958.37,82.79c-6.67,0-12.52-1.3-17.56-3.91c-5.04-2.61-8.93-6.18-11.69-10.71
		c-2.75-4.53-4.13-9.69-4.13-15.49c0-5.87,1.36-11.07,4.08-15.6c2.72-4.53,6.43-8.08,11.14-10.65c4.71-2.57,10.04-3.86,15.98-3.86
		c5.72,0,10.89,1.21,15.49,3.64c4.6,2.43,8.24,5.91,10.93,10.44c2.68,4.53,4.02,9.95,4.02,16.25c0,0.65-0.04,1.4-0.11,2.23
		c-0.07,0.83-0.15,1.61-0.22,2.34h-47.51v-9.89h38.59l-6.52,2.93c0-3.04-0.62-5.69-1.85-7.94c-1.23-2.25-2.93-4-5.11-5.27
		c-2.17-1.27-4.71-1.9-7.61-1.9c-2.9,0-5.45,0.64-7.66,1.9c-2.21,1.27-3.93,3.04-5.16,5.33c-1.23,2.28-1.85,4.98-1.85,8.1v2.61
		c0,3.19,0.71,6,2.12,8.43c1.41,2.43,3.41,4.28,5.98,5.54c2.57,1.27,5.6,1.9,9.08,1.9c3.12,0,5.85-0.47,8.21-1.41
		c2.35-0.94,4.51-2.35,6.47-4.24l9.02,9.78c-2.68,3.04-6.05,5.38-10.11,7.01C968.34,81.97,963.66,82.79,958.37,82.79z"/>
	<path class="st1" d="M990.99,37.78V24.74h40.55v13.05H990.99z M1021.86,82.79c-6.89,0-12.25-1.76-16.09-5.27
		c-3.84-3.51-5.76-8.75-5.76-15.71V10.49h16.96v51.09c0,2.46,0.65,4.37,1.96,5.71c1.3,1.34,3.08,2.01,5.33,2.01
		c2.68,0,4.96-0.72,6.85-2.17l4.57,11.96c-1.74,1.23-3.82,2.16-6.25,2.77C1026.99,82.48,1024.47,82.79,1021.86,82.79z"/>
	<path class="st1" d="M1080.78,22.56c4.64,0,8.79,0.92,12.45,2.77c3.66,1.85,6.54,4.67,8.64,8.48c2.1,3.8,3.15,8.68,3.15,14.62
		v33.48h-16.96V51.04c0-4.71-1.03-8.19-3.1-10.44c-2.07-2.25-4.98-3.37-8.75-3.37c-2.68,0-5.09,0.56-7.23,1.69
		c-2.14,1.12-3.81,2.84-5,5.16c-1.2,2.32-1.79,5.29-1.79,8.91v28.92h-16.96V1.25h16.96v38.37l-3.81-4.89
		c2.1-3.91,5.11-6.92,9.02-9.02C1071.33,23.61,1075.78,22.56,1080.78,22.56z"/>
	<path class="st1" d="M1176.23,83.22c-5.58,0-10.54-0.91-14.89-2.72c-4.35-1.81-7.79-4.28-10.33-7.39c-2.54-3.12-3.8-6.7-3.8-10.76
		c0-3.77,0.83-7.16,2.5-10.16c1.67-3.01,4.31-5.83,7.94-8.48c3.62-2.64,8.22-5.23,13.81-7.77c4.06-1.88,7.25-3.55,9.57-5
		c2.32-1.45,3.95-2.84,4.89-4.19c0.94-1.34,1.41-2.7,1.41-4.08c0-1.88-0.64-3.41-1.9-4.57c-1.27-1.16-3.14-1.74-5.6-1.74
		c-2.61,0-4.64,0.65-6.09,1.96c-1.45,1.3-2.17,2.97-2.17,5c0,1.09,0.22,2.16,0.65,3.21c0.44,1.05,1.27,2.25,2.5,3.59
		c1.23,1.34,2.97,3.06,5.22,5.16l40.11,37.18l-9.24,10.76l-44.25-41.09c-2.54-2.32-4.57-4.49-6.09-6.52
		c-1.52-2.03-2.63-4.02-3.32-5.98c-0.69-1.96-1.03-3.98-1.03-6.09c0-3.7,0.98-6.96,2.94-9.78c1.96-2.83,4.71-5.02,8.26-6.58
		c3.55-1.56,7.72-2.34,12.5-2.34c4.42,0,8.24,0.71,11.47,2.12s5.76,3.42,7.61,6.03c1.85,2.61,2.77,5.73,2.77,9.35
		c0,3.19-0.8,6.11-2.39,8.75c-1.59,2.65-4.08,5.13-7.45,7.45c-3.37,2.32-7.77,4.67-13.21,7.07c-3.7,1.67-6.62,3.28-8.75,4.84
		c-2.14,1.56-3.68,3.14-4.62,4.73c-0.94,1.6-1.41,3.37-1.41,5.33c0,1.81,0.56,3.44,1.69,4.89c1.12,1.45,2.7,2.57,4.73,3.37
		c2.03,0.8,4.42,1.2,7.17,1.2c4.42,0,8.48-1.03,12.18-3.1c3.7-2.07,6.83-5.15,9.4-9.24c2.57-4.09,4.4-9.08,5.49-14.95l13.59,4.24
		c-1.52,7.39-4.24,13.81-8.15,19.24c-3.91,5.44-8.73,9.64-14.46,12.61C1189.74,81.74,1183.33,83.22,1176.23,83.22z"/>
	<path class="st1" d="M1262.22,81.92V5.82h17.5v76.1H1262.22z M1277.98,64.52L1277,44.2l36.42-38.37h19.57l-32.83,35.33l-9.78,10.44
		L1277.98,64.52z M1314.29,81.92l-27.07-33.16l11.52-12.5l36.09,45.66H1314.29z"/>
	<path class="st1" d="M1366.91,82.79c-6.23,0-11.76-1.3-16.58-3.91c-4.82-2.61-8.63-6.18-11.42-10.71
		c-2.79-4.53-4.18-9.69-4.18-15.49c0-5.87,1.39-11.07,4.18-15.6c2.79-4.53,6.59-8.08,11.42-10.65c4.82-2.57,10.34-3.86,16.58-3.86
		c6.16,0,11.67,1.29,16.52,3.86c4.85,2.57,8.66,6.11,11.41,10.6c2.75,4.49,4.13,9.71,4.13,15.65c0,5.8-1.38,10.96-4.13,15.49
		c-2.76,4.53-6.56,8.1-11.41,10.71C1378.57,81.48,1373.07,82.79,1366.91,82.79z M1366.91,68.87c2.83,0,5.36-0.65,7.61-1.96
		c2.25-1.3,4.02-3.17,5.33-5.6c1.3-2.43,1.96-5.31,1.96-8.64c0-3.41-0.65-6.31-1.96-8.7c-1.3-2.39-3.08-4.24-5.33-5.54
		c-2.25-1.3-4.78-1.96-7.61-1.96s-5.36,0.65-7.61,1.96c-2.25,1.3-4.04,3.15-5.38,5.54c-1.34,2.39-2.01,5.29-2.01,8.7
		c0,3.33,0.67,6.22,2.01,8.64c1.34,2.43,3.13,4.29,5.38,5.6C1361.54,68.22,1364.08,68.87,1366.91,68.87z"/>
	<path class="st1" d="M1410.28,81.92V1.25h16.96v80.66H1410.28z"/>
	<path class="st1" d="M1443,81.92V1.25h16.96v80.66H1443z"/>
	<path class="st1" d="M1504.75,82.79c-6.67,0-12.52-1.3-17.56-3.91c-5.04-2.61-8.93-6.18-11.69-10.71
		c-2.75-4.53-4.13-9.69-4.13-15.49c0-5.87,1.36-11.07,4.08-15.6c2.72-4.53,6.43-8.08,11.14-10.65c4.71-2.57,10.04-3.86,15.98-3.86
		c5.72,0,10.89,1.21,15.49,3.64c4.6,2.43,8.24,5.91,10.93,10.44c2.68,4.53,4.02,9.95,4.02,16.25c0,0.65-0.04,1.4-0.11,2.23
		c-0.07,0.83-0.15,1.61-0.22,2.34h-47.51v-9.89h38.59l-6.52,2.93c0-3.04-0.62-5.69-1.85-7.94c-1.23-2.25-2.93-4-5.11-5.27
		c-2.17-1.27-4.71-1.9-7.61-1.9c-2.9,0-5.45,0.64-7.66,1.9c-2.21,1.27-3.93,3.04-5.16,5.33c-1.23,2.28-1.85,4.98-1.85,8.1v2.61
		c0,3.19,0.71,6,2.12,8.43c1.41,2.43,3.41,4.28,5.98,5.54c2.57,1.27,5.6,1.9,9.08,1.9c3.12,0,5.85-0.47,8.21-1.41
		c2.35-0.94,4.51-2.35,6.47-4.24l9.02,9.78c-2.68,3.04-6.05,5.38-10.11,7.01C1514.71,81.97,1510.04,82.79,1504.75,82.79z"/>
	<path class="st1" d="M1569.21,79.09c-5.44,0-10.35-1.18-14.73-3.53c-4.39-2.35-7.9-5.65-10.54-9.89
		c-2.65-4.24-3.97-9.19-3.97-14.84c0-5.72,1.32-10.71,3.97-14.95c2.65-4.24,6.16-7.52,10.54-9.84c4.38-2.32,9.3-3.48,14.73-3.48
		c4.93,0,9.28,1,13.05,2.99c3.77,1.99,6.7,5.07,8.8,9.24c2.1,4.17,3.15,9.51,3.15,16.03c0,6.45-1.05,11.76-3.15,15.93
		c-2.1,4.17-5.04,7.27-8.8,9.29C1578.49,78.08,1574.14,79.09,1569.21,79.09z M1571.82,103.88c-5.51,0-10.82-0.67-15.93-2.01
		c-5.11-1.34-9.37-3.35-12.77-6.03l6.74-12.18c2.46,2.03,5.6,3.64,9.4,4.84c3.81,1.2,7.56,1.79,11.25,1.79
		c6.01,0,10.38-1.34,13.1-4.02c2.72-2.68,4.08-6.67,4.08-11.96V65.5l1.09-14.68l-0.22-14.79V23.43h16.09v48.7
		c0,10.87-2.83,18.88-8.48,24.03C1590.52,101.3,1582.4,103.88,1571.82,103.88z M1572.58,65.18c2.97,0,5.62-0.6,7.94-1.79
		c2.32-1.2,4.13-2.88,5.44-5.06c1.3-2.17,1.96-4.67,1.96-7.5c0-2.9-0.65-5.42-1.96-7.56c-1.3-2.14-3.12-3.8-5.44-5
		c-2.32-1.2-4.96-1.79-7.94-1.79c-2.97,0-5.62,0.6-7.94,1.79c-2.32,1.2-4.15,2.86-5.49,5c-1.34,2.14-2.01,4.66-2.01,7.56
		c0,2.83,0.67,5.33,2.01,7.5c1.34,2.17,3.17,3.86,5.49,5.06C1566.97,64.58,1569.61,65.18,1572.58,65.18z"/>
	<path class="st1" d="M1649.44,82.79c-6.67,0-12.52-1.3-17.56-3.91c-5.04-2.61-8.93-6.18-11.69-10.71
		c-2.75-4.53-4.13-9.69-4.13-15.49c0-5.87,1.36-11.07,4.08-15.6c2.72-4.53,6.43-8.08,11.14-10.65c4.71-2.57,10.04-3.86,15.98-3.86
		c5.72,0,10.89,1.21,15.49,3.64c4.6,2.43,8.24,5.91,10.93,10.44c2.68,4.53,4.02,9.95,4.02,16.25c0,0.65-0.04,1.4-0.11,2.23
		c-0.07,0.83-0.15,1.61-0.22,2.34h-47.51v-9.89h38.59l-6.52,2.93c0-3.04-0.62-5.69-1.85-7.94c-1.23-2.25-2.93-4-5.11-5.27
		c-2.17-1.27-4.71-1.9-7.61-1.9c-2.9,0-5.46,0.64-7.66,1.9c-2.21,1.27-3.93,3.04-5.16,5.33c-1.23,2.28-1.85,4.98-1.85,8.1v2.61
		c0,3.19,0.71,6,2.12,8.43c1.41,2.43,3.41,4.28,5.98,5.54c2.57,1.27,5.6,1.9,9.08,1.9c3.12,0,5.85-0.47,8.21-1.41
		c2.35-0.94,4.51-2.35,6.47-4.24l9.02,9.78c-2.68,3.04-6.05,5.38-10.11,7.01C1659.41,81.97,1654.73,82.79,1649.44,82.79z"/>
	<path class="st1" d="M1724.56,22.56c4.64,0,8.79,0.92,12.45,2.77c3.66,1.85,6.54,4.67,8.64,8.48c2.1,3.8,3.15,8.68,3.15,14.62
		v33.48h-16.96V51.04c0-4.71-1.03-8.19-3.1-10.44c-2.07-2.25-4.98-3.37-8.75-3.37c-2.68,0-5.09,0.56-7.23,1.69
		c-2.14,1.12-3.81,2.84-5,5.16c-1.2,2.32-1.79,5.29-1.79,8.91v28.92h-16.96V23.43h16.2v16.2l-3.04-4.89
		c2.1-3.91,5.11-6.92,9.02-9.02C1715.1,23.61,1719.56,22.56,1724.56,22.56z"/>
	<path class="st2" d="M371.14,197.88l30.63-67.64h9.57l30.73,67.64h-10.15l-27.35-62.23h3.86l-27.35,62.23H371.14z M384.18,180.97
		l2.61-7.73h38.07l2.8,7.73H384.18z M397.61,123.08c-1.35,0-2.51-0.47-3.48-1.4c-0.97-0.93-1.45-2.11-1.45-3.53
		c0-1.48,0.48-2.69,1.45-3.62c0.97-0.93,2.13-1.4,3.48-1.4s2.51,0.47,3.48,1.4c0.97,0.93,1.45,2.14,1.45,3.62
		c0,1.42-0.48,2.59-1.45,3.53C400.13,122.62,398.97,123.08,397.61,123.08z M415.59,123.08c-1.35,0-2.51-0.47-3.48-1.4
		c-0.97-0.93-1.45-2.11-1.45-3.53c0-1.48,0.48-2.69,1.45-3.62c0.97-0.93,2.13-1.4,3.48-1.4c1.35,0,2.51,0.47,3.48,1.4
		c0.97,0.93,1.45,2.14,1.45,3.62c0,1.42-0.48,2.59-1.45,3.53C418.1,122.62,416.94,123.08,415.59,123.08z"/>
	<path class="st2" d="M466.22,198.46c-4.25,0-8.29-0.58-12.13-1.74c-3.83-1.16-6.85-2.58-9.04-4.25l3.87-7.34
		c2.19,1.48,4.9,2.74,8.12,3.77c3.22,1.03,6.51,1.55,9.86,1.55c4.31,0,7.42-0.61,9.33-1.84c1.9-1.22,2.85-2.93,2.85-5.12
		c0-1.61-0.58-2.87-1.74-3.77c-1.16-0.9-2.69-1.58-4.59-2.03c-1.9-0.45-4.01-0.85-6.33-1.21c-2.32-0.35-4.64-0.8-6.96-1.35
		c-2.32-0.55-4.45-1.32-6.38-2.32c-1.93-1-3.48-2.38-4.64-4.16c-1.16-1.77-1.74-4.14-1.74-7.1c0-3.09,0.87-5.8,2.61-8.12
		c1.74-2.32,4.2-4.11,7.39-5.36c3.19-1.26,6.97-1.88,11.35-1.88c3.35,0,6.75,0.4,10.19,1.21c3.45,0.81,6.26,1.95,8.46,3.43
		l-3.96,7.34c-2.32-1.55-4.73-2.61-7.25-3.19c-2.51-0.58-5.03-0.87-7.54-0.87c-4.06,0-7.09,0.66-9.08,1.98c-2,1.32-3,3.01-3,5.07
		c0,1.74,0.59,3.08,1.79,4.01c1.19,0.93,2.74,1.66,4.64,2.17c1.9,0.52,4.01,0.95,6.33,1.3c2.32,0.35,4.64,0.81,6.96,1.35
		c2.32,0.55,4.43,1.3,6.33,2.27c1.9,0.97,3.45,2.32,4.64,4.06c1.19,1.74,1.79,4.06,1.79,6.96c0,3.09-0.9,5.77-2.71,8.02
		c-1.8,2.26-4.35,4.01-7.63,5.27C474.73,197.83,470.8,198.46,466.22,198.46z"/>
	<path class="st2" d="M493.86,154.3v-7.63h32.66v7.63H493.86z M518.79,198.46c-5.15,0-9.15-1.38-11.98-4.15
		c-2.84-2.77-4.25-6.73-4.25-11.89v-46.96h9.28v46.58c0,2.77,0.69,4.9,2.08,6.38c1.38,1.48,3.37,2.22,5.94,2.22
		c2.9,0,5.32-0.8,7.25-2.42l2.9,6.67c-1.42,1.22-3.11,2.13-5.07,2.71C522.96,198.17,520.92,198.46,518.79,198.46z"/>
	<path class="st2" d="M569.81,146.18c4.19,0,7.88,0.81,11.06,2.42c3.19,1.61,5.68,4.06,7.49,7.34c1.8,3.29,2.71,7.44,2.71,12.47
		v29.47h-9.28v-28.41c0-4.96-1.21-8.7-3.62-11.21c-2.42-2.51-5.81-3.77-10.19-3.77c-3.29,0-6.15,0.64-8.6,1.93
		c-2.45,1.29-4.33,3.19-5.65,5.7c-1.32,2.51-1.98,5.64-1.98,9.37v26.38h-9.28v-71.7h9.28v34.3l-1.84-3.67
		c1.67-3.35,4.25-5.96,7.73-7.83C561.11,147.11,565.17,146.18,569.81,146.18z"/>
	<path class="st2" d="M632.33,198.46c-5.48,0-10.29-1.13-14.45-3.38c-4.15-2.25-7.38-5.35-9.66-9.28
		c-2.29-3.93-3.43-8.44-3.43-13.53c0-5.09,1.11-9.6,3.33-13.53c2.22-3.93,5.28-7.01,9.18-9.23c3.9-2.22,8.29-3.33,13.19-3.33
		c4.96,0,9.34,1.1,13.14,3.29c3.8,2.19,6.78,5.27,8.94,9.23c2.16,3.96,3.24,8.59,3.24,13.87c0,0.39-0.02,0.84-0.05,1.35
		c-0.03,0.52-0.08,1-0.15,1.45h-43.58v-6.67h38.75l-3.77,2.32c0.06-3.29-0.61-6.22-2.03-8.79c-1.42-2.58-3.37-4.59-5.85-6.04
		c-2.48-1.45-5.36-2.17-8.65-2.17c-3.22,0-6.09,0.72-8.6,2.17c-2.51,1.45-4.48,3.48-5.89,6.09c-1.42,2.61-2.13,5.59-2.13,8.94v1.55
		c0,3.42,0.79,6.46,2.37,9.13c1.58,2.67,3.78,4.75,6.62,6.23c2.83,1.48,6.09,2.22,9.76,2.22c3.03,0,5.78-0.52,8.26-1.55
		c2.48-1.03,4.65-2.58,6.52-4.64l5.12,5.99c-2.32,2.71-5.2,4.77-8.65,6.18C640.43,197.75,636.58,198.46,632.33,198.46z"/>
	<path class="st2" d="M662.58,154.3v-7.63h32.66v7.63H662.58z M687.51,198.46c-5.15,0-9.15-1.38-11.98-4.15
		c-2.84-2.77-4.25-6.73-4.25-11.89v-46.96h9.28v46.58c0,2.77,0.69,4.9,2.08,6.38c1.38,1.48,3.37,2.22,5.94,2.22
		c2.9,0,5.32-0.8,7.25-2.42l2.9,6.67c-1.42,1.22-3.11,2.13-5.07,2.71C691.68,198.17,689.63,198.46,687.51,198.46z"/>
	<path class="st2" d="M715.82,136.8c-1.8,0-3.3-0.58-4.49-1.74c-1.19-1.16-1.79-2.58-1.79-4.25c0-1.74,0.59-3.19,1.79-4.35
		c1.19-1.16,2.69-1.74,4.49-1.74c1.8,0,3.3,0.56,4.49,1.69c1.19,1.13,1.79,2.53,1.79,4.2c0,1.74-0.58,3.21-1.74,4.4
		C719.2,136.21,717.69,136.8,715.82,136.8z M711.18,197.88v-51.22h9.28v51.22H711.18z"/>
	<path class="st2" d="M754.08,198.46c-4.25,0-8.29-0.58-12.13-1.74c-3.83-1.16-6.85-2.58-9.04-4.25l3.87-7.34
		c2.19,1.48,4.9,2.74,8.12,3.77c3.22,1.03,6.51,1.55,9.86,1.55c4.32,0,7.42-0.61,9.33-1.84c1.9-1.22,2.85-2.93,2.85-5.12
		c0-1.61-0.58-2.87-1.74-3.77c-1.16-0.9-2.69-1.58-4.59-2.03c-1.9-0.45-4.01-0.85-6.33-1.21c-2.32-0.35-4.64-0.8-6.96-1.35
		c-2.32-0.55-4.45-1.32-6.38-2.32c-1.93-1-3.48-2.38-4.64-4.16c-1.16-1.77-1.74-4.14-1.74-7.1c0-3.09,0.87-5.8,2.61-8.12
		c1.74-2.32,4.2-4.11,7.39-5.36c3.19-1.26,6.97-1.88,11.35-1.88c3.35,0,6.75,0.4,10.19,1.21c3.45,0.81,6.26,1.95,8.46,3.43
		l-3.96,7.34c-2.32-1.55-4.73-2.61-7.25-3.19c-2.51-0.58-5.03-0.87-7.54-0.87c-4.06,0-7.09,0.66-9.08,1.98c-2,1.32-3,3.01-3,5.07
		c0,1.74,0.59,3.08,1.79,4.01c1.19,0.93,2.74,1.66,4.64,2.17c1.9,0.52,4.01,0.95,6.33,1.3c2.32,0.35,4.64,0.81,6.96,1.35
		c2.32,0.55,4.43,1.3,6.33,2.27c1.9,0.97,3.45,2.32,4.64,4.06c1.19,1.74,1.79,4.06,1.79,6.96c0,3.09-0.9,5.77-2.71,8.02
		c-1.8,2.26-4.35,4.01-7.63,5.27C762.59,197.83,758.66,198.46,754.08,198.46z"/>
	<path class="st2" d="M811.39,198.46c-5.22,0-9.87-1.13-13.96-3.38c-4.09-2.25-7.3-5.35-9.61-9.28c-2.32-3.93-3.48-8.44-3.48-13.53
		c0-5.09,1.16-9.6,3.48-13.53c2.32-3.93,5.52-7.01,9.61-9.23c4.09-2.22,8.75-3.33,13.96-3.33c4.64,0,8.78,0.92,12.42,2.75
		c3.64,1.84,6.46,4.56,8.46,8.17l-7.05,4.54c-1.68-2.51-3.72-4.36-6.14-5.56c-2.42-1.19-5.01-1.79-7.78-1.79
		c-3.35,0-6.35,0.74-8.99,2.22c-2.64,1.48-4.73,3.56-6.28,6.23c-1.55,2.67-2.32,5.85-2.32,9.52s0.77,6.86,2.32,9.57
		c1.55,2.71,3.64,4.8,6.28,6.28c2.64,1.48,5.64,2.22,8.99,2.22c2.77,0,5.36-0.59,7.78-1.79c2.42-1.19,4.46-3.04,6.14-5.56l7.05,4.45
		c-2,3.54-4.82,6.27-8.46,8.17C820.16,197.51,816.02,198.46,811.39,198.46z"/>
	<path class="st2" d="M872.17,146.18c4.19,0,7.88,0.81,11.06,2.42c3.19,1.61,5.68,4.06,7.49,7.34c1.8,3.29,2.71,7.44,2.71,12.47
		v29.47h-9.28v-28.41c0-4.96-1.21-8.7-3.62-11.21c-2.42-2.51-5.81-3.77-10.19-3.77c-3.29,0-6.15,0.64-8.6,1.93
		c-2.45,1.29-4.33,3.19-5.65,5.7c-1.32,2.51-1.98,5.64-1.98,9.37v26.38h-9.28v-71.7h9.28v34.3l-1.84-3.67
		c1.67-3.35,4.25-5.96,7.73-7.83C863.47,147.11,867.53,146.18,872.17,146.18z"/>
	<path class="st2" d="M934.69,198.46c-5.48,0-10.29-1.13-14.45-3.38c-4.16-2.25-7.38-5.35-9.66-9.28
		c-2.29-3.93-3.43-8.44-3.43-13.53c0-5.09,1.11-9.6,3.33-13.53c2.22-3.93,5.28-7.01,9.18-9.23c3.9-2.22,8.29-3.33,13.19-3.33
		c4.96,0,9.34,1.1,13.14,3.29c3.8,2.19,6.78,5.27,8.94,9.23c2.16,3.96,3.24,8.59,3.24,13.87c0,0.39-0.02,0.84-0.05,1.35
		c-0.03,0.52-0.08,1-0.15,1.45H914.4v-6.67h38.75l-3.77,2.32c0.06-3.29-0.61-6.22-2.03-8.79c-1.42-2.58-3.37-4.59-5.85-6.04
		c-2.48-1.45-5.36-2.17-8.65-2.17c-3.22,0-6.09,0.72-8.6,2.17c-2.51,1.45-4.48,3.48-5.89,6.09c-1.42,2.61-2.13,5.59-2.13,8.94v1.55
		c0,3.42,0.79,6.46,2.37,9.13c1.58,2.67,3.78,4.75,6.62,6.23c2.83,1.48,6.09,2.22,9.76,2.22c3.03,0,5.78-0.52,8.26-1.55
		c2.48-1.03,4.65-2.58,6.52-4.64l5.12,5.99c-2.32,2.71-5.2,4.77-8.65,6.18C942.79,197.75,938.94,198.46,934.69,198.46z"/>
	<path class="st2" d="M994.89,197.88v-6.57l45.51-56.43l1.06,3.77h-45.9v-8.41h54.6v6.57l-45.32,56.43l-1.16-3.77h47.74v8.41H994.89
		z"/>
	<path class="st2" d="M1079.25,198.46c-3.8,0-7.14-0.64-10-1.93c-2.87-1.29-5.07-3.08-6.62-5.36c-1.55-2.29-2.32-4.88-2.32-7.78
		c0-2.77,0.66-5.28,1.98-7.54c1.32-2.25,3.48-4.06,6.47-5.41c2.99-1.35,7.04-2.03,12.13-2.03h16.23v6.67h-15.85
		c-4.64,0-7.76,0.77-9.37,2.32c-1.61,1.55-2.42,3.41-2.42,5.6c0,2.51,1,4.53,2.99,6.04c2,1.51,4.77,2.27,8.31,2.27
		c3.48,0,6.52-0.77,9.13-2.32s4.49-3.8,5.65-6.76l1.84,6.38c-1.22,3.03-3.38,5.43-6.47,7.2
		C1087.85,197.57,1083.95,198.46,1079.25,198.46z M1096.06,197.88v-10.82l-0.48-2.03v-18.46c0-3.93-1.14-6.97-3.43-9.13
		c-2.29-2.16-5.72-3.24-10.29-3.24c-3.03,0-5.99,0.5-8.89,1.5c-2.9,1-5.35,2.34-7.34,4.01l-3.87-6.96c2.64-2.13,5.81-3.75,9.52-4.88
		c3.7-1.13,7.59-1.69,11.64-1.69c7.02,0,12.43,1.71,16.23,5.12c3.8,3.42,5.7,8.63,5.7,15.65v30.92H1096.06z"/>
	<path class="st2" d="M1150.66,146.18c4.19,0,7.88,0.81,11.06,2.42c3.19,1.61,5.68,4.06,7.49,7.34c1.8,3.29,2.71,7.44,2.71,12.47
		v29.47h-9.28v-28.41c0-4.96-1.21-8.7-3.62-11.21c-2.42-2.51-5.81-3.77-10.19-3.77c-3.28,0-6.15,0.64-8.6,1.93
		c-2.45,1.29-4.33,3.19-5.65,5.7c-1.32,2.51-1.98,5.64-1.98,9.37v26.38h-9.28v-71.7h9.28v34.3l-1.84-3.67
		c1.67-3.35,4.25-5.96,7.73-7.83C1141.96,147.11,1146.02,146.18,1150.66,146.18z"/>
	<path class="st2" d="M1217.72,146.18c4.19,0,7.88,0.81,11.06,2.42c3.19,1.61,5.68,4.06,7.49,7.34c1.8,3.29,2.71,7.44,2.71,12.47
		v29.47h-9.28v-28.41c0-4.96-1.21-8.7-3.62-11.21c-2.42-2.51-5.81-3.77-10.19-3.77c-3.28,0-6.15,0.64-8.6,1.93
		c-2.45,1.29-4.33,3.19-5.65,5.7c-1.32,2.51-1.98,5.64-1.98,9.37v26.38h-9.28v-51.22h8.89v13.82l-1.45-3.67
		c1.67-3.35,4.25-5.96,7.73-7.83C1209.02,147.11,1213.08,146.18,1217.72,146.18z"/>
	<path class="st2" d="M1284.79,146.18c4.19,0,7.88,0.81,11.06,2.42c3.19,1.61,5.68,4.06,7.49,7.34c1.8,3.29,2.71,7.44,2.71,12.47
		v29.47h-9.28v-28.41c0-4.96-1.21-8.7-3.62-11.21c-2.42-2.51-5.81-3.77-10.19-3.77c-3.28,0-6.15,0.64-8.6,1.93
		c-2.45,1.29-4.33,3.19-5.65,5.7c-1.32,2.51-1.98,5.64-1.98,9.37v26.38h-9.28v-71.7h9.28v34.3l-1.84-3.67
		c1.67-3.35,4.25-5.96,7.73-7.83C1276.09,147.11,1280.15,146.18,1284.79,146.18z"/>
	<path class="st2" d="M1347.31,198.46c-5.48,0-10.29-1.13-14.45-3.38c-4.16-2.25-7.38-5.35-9.66-9.28
		c-2.29-3.93-3.43-8.44-3.43-13.53c0-5.09,1.11-9.6,3.33-13.53c2.22-3.93,5.28-7.01,9.18-9.23c3.9-2.22,8.29-3.33,13.19-3.33
		c4.96,0,9.34,1.1,13.14,3.29c3.8,2.19,6.78,5.27,8.94,9.23c2.16,3.96,3.24,8.59,3.24,13.87c0,0.39-0.02,0.84-0.05,1.35
		c-0.03,0.52-0.08,1-0.15,1.45h-43.58v-6.67h38.75l-3.77,2.32c0.06-3.29-0.61-6.22-2.03-8.79c-1.42-2.58-3.37-4.59-5.85-6.04
		c-2.48-1.45-5.36-2.17-8.65-2.17c-3.22,0-6.09,0.72-8.6,2.17c-2.51,1.45-4.48,3.48-5.89,6.09c-1.42,2.61-2.13,5.59-2.13,8.94v1.55
		c0,3.42,0.79,6.46,2.37,9.13c1.58,2.67,3.78,4.75,6.62,6.23c2.83,1.48,6.09,2.22,9.76,2.22c3.03,0,5.78-0.52,8.26-1.55
		c2.48-1.03,4.65-2.58,6.52-4.64l5.12,5.99c-2.32,2.71-5.2,4.77-8.65,6.18C1355.41,197.75,1351.56,198.46,1347.31,198.46z"/>
	<path class="st2" d="M1389.53,136.8c-1.8,0-3.3-0.58-4.49-1.74c-1.19-1.16-1.79-2.58-1.79-4.25c0-1.74,0.59-3.19,1.79-4.35
		c1.19-1.16,2.69-1.74,4.49-1.74s3.3,0.56,4.49,1.69c1.19,1.13,1.79,2.53,1.79,4.2c0,1.74-0.58,3.21-1.74,4.4
		C1392.92,136.21,1391.4,136.8,1389.53,136.8z M1384.9,197.88v-51.22h9.28v51.22H1384.9z"/>
	<path class="st2" d="M1413.11,197.88v-71.7h9.28v71.7H1413.11z"/>
	<path class="st2" d="M1441.33,197.88v-71.7h9.28v71.7H1441.33z M1448.86,185.51l0.19-11.89l29.47-26.96h11.21l-22.61,22.23
		l-5.02,4.25L1448.86,185.51z M1480.46,197.88l-20.1-24.93l5.99-7.44l25.51,32.37H1480.46z"/>
	<path class="st2" d="M1522.69,198.46c-4.38,0-8.23-0.8-11.55-2.42c-3.32-1.61-5.89-4.07-7.73-7.39c-1.84-3.32-2.75-7.49-2.75-12.51
		v-29.47h9.28v28.41c0,5.03,1.21,8.79,3.62,11.31c2.42,2.51,5.81,3.77,10.2,3.77c3.22,0,6.02-0.66,8.41-1.98
		c2.38-1.32,4.22-3.25,5.51-5.8c1.29-2.54,1.93-5.62,1.93-9.23v-26.48h9.28v51.22h-8.79v-13.82l1.45,3.67
		c-1.68,3.42-4.19,6.06-7.54,7.92C1530.65,197.52,1526.88,198.46,1522.69,198.46z"/>
	<path class="st2" d="M1595.17,146.18c4.19,0,7.88,0.81,11.06,2.42c3.19,1.61,5.68,4.06,7.49,7.34c1.8,3.29,2.71,7.44,2.71,12.47
		v29.47h-9.28v-28.41c0-4.96-1.21-8.7-3.62-11.21c-2.42-2.51-5.81-3.77-10.19-3.77c-3.28,0-6.15,0.64-8.6,1.93
		c-2.45,1.29-4.33,3.19-5.65,5.7c-1.32,2.51-1.98,5.64-1.98,9.37v26.38h-9.28v-51.22h8.89v13.82l-1.45-3.67
		c1.67-3.35,4.25-5.96,7.73-7.83C1586.47,147.11,1590.53,146.18,1595.17,146.18z"/>
	<path class="st2" d="M1656.04,198.46c-4.96,0-9.39-1.09-13.29-3.29c-3.9-2.19-6.97-5.25-9.23-9.18c-2.26-3.93-3.38-8.5-3.38-13.72
		s1.13-9.78,3.38-13.67c2.25-3.9,5.33-6.94,9.23-9.13c3.9-2.19,8.33-3.29,13.29-3.29c4.31,0,8.21,0.97,11.69,2.9
		c3.48,1.93,6.26,4.83,8.36,8.7c2.09,3.86,3.14,8.7,3.14,14.49s-1.02,10.63-3.04,14.49c-2.03,3.87-4.78,6.78-8.26,8.75
		C1664.45,197.47,1660.49,198.46,1656.04,198.46z M1656.82,190.34c3.22,0,6.14-0.74,8.74-2.22c2.61-1.48,4.67-3.59,6.18-6.33
		c1.51-2.74,2.27-5.91,2.27-9.52c0-3.67-0.76-6.84-2.27-9.52c-1.51-2.67-3.57-4.75-6.18-6.23c-2.61-1.48-5.53-2.22-8.74-2.22
		c-3.29,0-6.22,0.74-8.79,2.22c-2.58,1.48-4.64,3.56-6.19,6.23c-1.55,2.67-2.32,5.85-2.32,9.52c0,3.61,0.77,6.78,2.32,9.52
		c1.55,2.74,3.61,4.85,6.19,6.33C1650.6,189.6,1653.53,190.34,1656.82,190.34z M1674.31,197.88v-13.82l0.58-11.89l-0.97-11.89
		v-34.11h9.28v71.7H1674.31z"/>
	<path class="st2" d="M1724.85,198.46c-5.48,0-10.29-1.13-14.45-3.38c-4.16-2.25-7.38-5.35-9.66-9.28
		c-2.29-3.93-3.43-8.44-3.43-13.53c0-5.09,1.11-9.6,3.33-13.53c2.22-3.93,5.28-7.01,9.18-9.23c3.9-2.22,8.29-3.33,13.19-3.33
		c4.96,0,9.34,1.1,13.14,3.29c3.8,2.19,6.78,5.27,8.94,9.23c2.16,3.96,3.24,8.59,3.24,13.87c0,0.39-0.02,0.84-0.05,1.35
		c-0.03,0.52-0.08,1-0.15,1.45h-43.58v-6.67h38.75l-3.77,2.32c0.06-3.29-0.61-6.22-2.03-8.79c-1.42-2.58-3.37-4.59-5.85-6.04
		c-2.48-1.45-5.36-2.17-8.65-2.17c-3.22,0-6.09,0.72-8.6,2.17c-2.51,1.45-4.48,3.48-5.89,6.09c-1.42,2.61-2.13,5.59-2.13,8.94v1.55
		c0,3.42,0.79,6.46,2.37,9.13c1.58,2.67,3.78,4.75,6.62,6.23c2.83,1.48,6.09,2.22,9.76,2.22c3.03,0,5.78-0.52,8.26-1.55
		c2.48-1.03,4.65-2.58,6.52-4.64l5.12,5.99c-2.32,2.71-5.2,4.77-8.65,6.18C1732.95,197.75,1729.1,198.46,1724.85,198.46z"/>
	<path class="st2" d="M381.38,313.84v-67.64h9.66v67.64H381.38z"/>
	<path class="st2" d="M475.31,262.14c4.12,0,7.76,0.81,10.92,2.42c3.16,1.61,5.62,4.06,7.39,7.34c1.77,3.28,2.66,7.44,2.66,12.46
		v29.47H487v-28.41c0-4.96-1.16-8.7-3.48-11.21c-2.32-2.51-5.57-3.77-9.76-3.77c-3.09,0-5.8,0.64-8.12,1.93
		c-2.32,1.29-4.11,3.19-5.36,5.7c-1.26,2.51-1.88,5.64-1.88,9.37v26.38h-9.28v-28.41c0-4.96-1.14-8.7-3.43-11.21
		c-2.29-2.51-5.56-3.77-9.81-3.77c-3.03,0-5.7,0.64-8.02,1.93c-2.32,1.29-4.12,3.19-5.41,5.7c-1.29,2.51-1.93,5.64-1.93,9.37v26.38
		h-9.28v-51.22h8.89v13.63l-1.45-3.48c1.61-3.35,4.09-5.96,7.44-7.83c3.35-1.87,7.25-2.8,11.69-2.8c4.9,0,9.11,1.21,12.66,3.62
		c3.54,2.42,5.86,6.07,6.96,10.97l-3.77-1.55c1.55-3.93,4.25-7.09,8.12-9.47C465.64,263.33,470.15,262.14,475.31,262.14z"/>
	<path class="st2" d="M514.63,332.58v-69.96h8.89v13.82l-0.58,11.89l0.97,11.89v32.37H514.63z M541.79,314.41
		c-4.25,0-8.13-0.98-11.64-2.95c-3.51-1.96-6.31-4.88-8.41-8.74c-2.09-3.87-3.14-8.7-3.14-14.49s1.01-10.63,3.04-14.49
		s4.8-6.76,8.31-8.7c3.51-1.93,7.46-2.9,11.84-2.9c5.03,0,9.47,1.1,13.34,3.28c3.86,2.19,6.92,5.24,9.18,9.13
		c2.25,3.9,3.38,8.46,3.38,13.67c0,5.22-1.13,9.79-3.38,13.72c-2.26,3.93-5.32,6.99-9.18,9.18
		C551.26,313.32,546.81,314.41,541.79,314.41z M541.01,306.3c3.29,0,6.23-0.74,8.84-2.22c2.61-1.48,4.67-3.59,6.18-6.33
		c1.51-2.74,2.27-5.91,2.27-9.52c0-3.67-0.76-6.84-2.27-9.52c-1.51-2.67-3.58-4.75-6.18-6.23c-2.61-1.48-5.56-2.22-8.84-2.22
		c-3.22,0-6.14,0.74-8.74,2.22c-2.61,1.48-4.67,3.56-6.18,6.23c-1.51,2.67-2.27,5.85-2.27,9.52c0,3.61,0.76,6.78,2.27,9.52
		c1.51,2.74,3.58,4.85,6.18,6.33C534.88,305.56,537.79,306.3,541.01,306.3z"/>
	<path class="st2" d="M581.79,313.84v-71.7h9.28v71.7H581.79z"/>
	<path class="st2" d="M624.98,314.41c-3.8,0-7.14-0.64-10-1.93c-2.87-1.29-5.07-3.08-6.62-5.36c-1.55-2.29-2.32-4.88-2.32-7.78
		c0-2.77,0.66-5.28,1.98-7.54c1.32-2.25,3.48-4.06,6.47-5.41c3-1.35,7.04-2.03,12.13-2.03h16.23v6.67h-15.85
		c-4.64,0-7.76,0.77-9.37,2.32c-1.61,1.55-2.42,3.41-2.42,5.6c0,2.51,1,4.53,3,6.04c2,1.51,4.77,2.27,8.31,2.27
		c3.48,0,6.52-0.77,9.13-2.32c2.61-1.55,4.49-3.8,5.65-6.76l1.84,6.38c-1.22,3.03-3.38,5.43-6.47,7.2
		C633.59,313.53,629.69,314.41,624.98,314.41z M641.8,313.84v-10.82l-0.48-2.03v-18.46c0-3.93-1.14-6.97-3.43-9.13
		c-2.29-2.16-5.72-3.24-10.29-3.24c-3.03,0-5.99,0.5-8.89,1.5c-2.9,1-5.35,2.33-7.34,4.01l-3.87-6.96c2.64-2.13,5.81-3.75,9.52-4.88
		c3.7-1.13,7.59-1.69,11.64-1.69c7.02,0,12.43,1.71,16.23,5.12c3.8,3.42,5.7,8.63,5.7,15.66v30.92H641.8z"/>
	<path class="st2" d="M696.4,262.14c4.19,0,7.88,0.81,11.06,2.42c3.19,1.61,5.68,4.06,7.49,7.34c1.8,3.28,2.71,7.44,2.71,12.46
		v29.47h-9.28v-28.41c0-4.96-1.21-8.7-3.62-11.21c-2.42-2.51-5.81-3.77-10.19-3.77c-3.29,0-6.15,0.64-8.6,1.93
		c-2.45,1.29-4.33,3.19-5.65,5.7c-1.32,2.51-1.98,5.64-1.98,9.37v26.38h-9.28v-51.22h8.89v13.82l-1.45-3.67
		c1.67-3.35,4.25-5.96,7.73-7.83C687.7,263.07,691.76,262.14,696.4,262.14z"/>
	<path class="st2" d="M728.77,270.25v-7.63h32.66v7.63H728.77z M753.7,314.41c-5.15,0-9.15-1.38-11.98-4.16
		c-2.84-2.77-4.25-6.73-4.25-11.89v-46.96h9.28v46.58c0,2.77,0.69,4.9,2.08,6.38c1.38,1.48,3.37,2.22,5.94,2.22
		c2.9,0,5.32-0.8,7.25-2.42l2.9,6.67c-1.42,1.23-3.11,2.13-5.07,2.71C757.87,314.13,755.82,314.41,753.7,314.41z"/>
	<path class="st2" d="M797.57,314.41c-5.15,0-9.73-1.13-13.72-3.38c-4-2.25-7.15-5.36-9.47-9.33c-2.32-3.96-3.48-8.45-3.48-13.48
		c0-5.09,1.16-9.6,3.48-13.53c2.32-3.93,5.47-7.01,9.47-9.23c3.99-2.22,8.57-3.33,13.72-3.33c5.09,0,9.65,1.11,13.67,3.33
		c4.03,2.22,7.18,5.28,9.47,9.18c2.29,3.9,3.43,8.42,3.43,13.58c0,5.09-1.14,9.6-3.43,13.53c-2.29,3.93-5.44,7.02-9.47,9.28
		C807.22,313.29,802.66,314.41,797.57,314.41z M797.57,306.3c3.29,0,6.23-0.74,8.84-2.22c2.61-1.48,4.65-3.59,6.14-6.33
		c1.48-2.74,2.22-5.91,2.22-9.52c0-3.67-0.74-6.84-2.22-9.52c-1.48-2.67-3.53-4.75-6.14-6.23c-2.61-1.48-5.56-2.22-8.84-2.22
		c-3.29,0-6.22,0.74-8.79,2.22c-2.58,1.48-4.64,3.56-6.18,6.23c-1.55,2.67-2.32,5.85-2.32,9.52c0,3.61,0.77,6.78,2.32,9.52
		c1.55,2.74,3.61,4.85,6.18,6.33C791.35,305.56,794.28,306.3,797.57,306.3z"/>
	<path class="st2" d="M838.25,313.84v-71.7h9.28v71.7H838.25z"/>
	<path class="st2" d="M888.4,314.41c-5.15,0-9.73-1.13-13.72-3.38c-4-2.25-7.15-5.36-9.47-9.33c-2.32-3.96-3.48-8.45-3.48-13.48
		c0-5.09,1.16-9.6,3.48-13.53c2.32-3.93,5.47-7.01,9.47-9.23c3.99-2.22,8.57-3.33,13.72-3.33c5.09,0,9.65,1.11,13.67,3.33
		c4.03,2.22,7.18,5.28,9.47,9.18c2.29,3.9,3.43,8.42,3.43,13.58c0,5.09-1.15,9.6-3.43,13.53c-2.29,3.93-5.44,7.02-9.47,9.28
		C898.05,313.29,893.49,314.41,888.4,314.41z M888.4,306.3c3.29,0,6.23-0.74,8.84-2.22c2.61-1.48,4.65-3.59,6.14-6.33
		c1.48-2.74,2.22-5.91,2.22-9.52c0-3.67-0.74-6.84-2.22-9.52c-1.48-2.67-3.53-4.75-6.14-6.23c-2.61-1.48-5.56-2.22-8.84-2.22
		c-3.29,0-6.22,0.74-8.79,2.22c-2.58,1.48-4.64,3.56-6.18,6.23c-1.55,2.67-2.32,5.85-2.32,9.52c0,3.61,0.77,6.78,2.32,9.52
		c1.55,2.74,3.61,4.85,6.18,6.33C882.18,305.56,885.12,306.3,888.4,306.3z"/>
	<path class="st2" d="M950.34,311.71c-4.96,0-9.39-1.05-13.29-3.14c-3.9-2.09-6.99-5.01-9.28-8.75c-2.29-3.74-3.43-8.05-3.43-12.95
		c0-4.96,1.14-9.29,3.43-13c2.29-3.7,5.38-6.59,9.28-8.65c3.9-2.06,8.32-3.09,13.29-3.09c4.38,0,8.37,0.89,11.98,2.66
		c3.61,1.77,6.49,4.49,8.65,8.17c2.16,3.67,3.24,8.31,3.24,13.92c0,5.54-1.08,10.15-3.24,13.82c-2.16,3.67-5.04,6.43-8.65,8.26
		C958.72,310.79,954.72,311.71,950.34,311.71z M951.5,333.16c-4.7,0-9.26-0.66-13.67-1.98c-4.41-1.32-8-3.21-10.77-5.65l4.45-7.15
		c2.38,2.06,5.31,3.69,8.79,4.88c3.48,1.19,7.12,1.79,10.92,1.79c6.05,0,10.5-1.42,13.34-4.25c2.83-2.84,4.25-7.15,4.25-12.95
		v-10.82l0.97-10.15l-0.48-10.24v-14.01h8.79v44.26c0,9.02-2.26,15.65-6.76,19.91C966.8,331.04,960.2,333.16,951.5,333.16z
		 M951.4,303.59c3.41,0,6.44-0.71,9.08-2.13c2.64-1.42,4.72-3.38,6.23-5.89c1.51-2.51,2.27-5.41,2.27-8.7c0-3.28-0.76-6.18-2.27-8.7
		c-1.51-2.51-3.59-4.46-6.23-5.85c-2.64-1.38-5.67-2.08-9.08-2.08c-3.41,0-6.46,0.69-9.13,2.08c-2.67,1.39-4.77,3.33-6.28,5.85
		c-1.51,2.51-2.27,5.41-2.27,8.7c0,3.29,0.76,6.19,2.27,8.7c1.51,2.51,3.61,4.48,6.28,5.89
		C944.95,302.88,947.99,303.59,951.4,303.59z"/>
	<path class="st2" d="M1001.65,252.76c-1.8,0-3.3-0.58-4.49-1.74c-1.19-1.16-1.79-2.58-1.79-4.25c0-1.74,0.59-3.19,1.79-4.35
		c1.19-1.16,2.69-1.74,4.49-1.74s3.3,0.56,4.49,1.69c1.19,1.13,1.79,2.53,1.79,4.2c0,1.74-0.58,3.21-1.74,4.4
		C1005.03,252.17,1003.52,252.76,1001.65,252.76z M997.01,313.84v-51.22h9.28v51.22H997.01z"/>
	<path class="st2" d="M1048.04,314.41c-5.48,0-10.29-1.13-14.45-3.38c-4.16-2.25-7.38-5.35-9.66-9.28
		c-2.29-3.93-3.43-8.44-3.43-13.53c0-5.09,1.11-9.6,3.33-13.53c2.22-3.93,5.28-7.01,9.18-9.23c3.9-2.22,8.29-3.33,13.19-3.33
		c4.96,0,9.34,1.1,13.14,3.28c3.8,2.19,6.78,5.27,8.94,9.23c2.16,3.96,3.24,8.59,3.24,13.87c0,0.39-0.02,0.84-0.05,1.35
		c-0.03,0.52-0.08,1-0.15,1.45h-43.58v-6.67h38.75l-3.77,2.32c0.06-3.29-0.61-6.22-2.03-8.79c-1.42-2.58-3.37-4.59-5.85-6.04
		c-2.48-1.45-5.36-2.17-8.65-2.17c-3.22,0-6.09,0.73-8.6,2.17c-2.51,1.45-4.48,3.48-5.89,6.09c-1.42,2.61-2.13,5.59-2.13,8.94v1.55
		c0,3.41,0.79,6.46,2.37,9.13c1.58,2.67,3.78,4.75,6.62,6.23c2.83,1.48,6.09,2.22,9.76,2.22c3.03,0,5.78-0.51,8.26-1.55
		c2.48-1.03,4.65-2.58,6.52-4.64l5.12,5.99c-2.32,2.71-5.2,4.77-8.65,6.19C1056.14,313.71,1052.29,314.41,1048.04,314.41z"/>
</g>
</svg>
