<svg xmlns="http://www.w3.org/2000/svg" viewBox="0 0 465.2063 64.0901"><defs><style>.cls-1{fill:#0c3257;}</style></defs><title>Element 2</title><g id="Ebene_2" data-name="Ebene 2"><g id="Ebene_2-2" data-name="Ebene 2"><path class="cls-1" d="M12.7284,48.204c-1.0715-8.1985,2.7878-15.2776,5.3343-22.6067,1.0842-3.12,3.7907-3.0161,5.4833.0763C29.3606,36.2975,29.4215,46.95,23.3349,57.52a4.54,4.54,0,0,1-1.0165.9232c-.1141-.4628-.433-.9945-.3047-1.3757a34.4078,34.4078,0,0,1,1.534-3.6722c4.248-9.01,3.2454-17.7794-1.1985-26.3878-.3683-.7133-.6425-1.6556-1.6383-1.6908-1.0489-.037-1.2744.9319-1.54,1.6643-1.302,3.595-2.7065,7.1642-3.7738,10.83A25.7714,25.7714,0,0,0,14.54,50.636a24.348,24.348,0,0,1,.4051,3.9662,2.9246,2.9246,0,0,1-1.8757,3.1925A2.963,2.963,0,0,1,9.58,56.493a45.2062,45.2062,0,0,1-3.3177-4.972C1.8694,43.87.9089,35.74,3.9528,27.4871c1.4917-4.0443,1.1555-7.3382-1.2228-10.76A17.0416,17.0416,0,0,1,.3522,11.808C-1.3463,5.8973,3.3332,1.0661,9.3487,2.4346c1.4543.3308,2.83.9981,4.28,1.3582,3.5211.8747,6.8976.8168,9.98-1.5317a10.3369,10.3369,0,0,1,5.9693-2.25c6.4923-.264,10.7578,4.18,10.0092,10.6644a9.8876,9.8876,0,0,1-.9762,3.8471c-2.847,4.7926-2.6157,9.6738-1.3322,14.8913,2.1962,8.927-.3147,16.7759-6.3713,23.5674a16.454,16.454,0,0,1-2.7522,2.8757c-1.08.7285-1.4918,3.4376-2.9424,2.1633-.9915-.8709,1.0036-2.552,2.0348-3.4948,8.6836-7.9395,10.82-17.62,7.6968-28.67a12.2872,12.2872,0,0,1,.993-9.1651,16.4479,16.4479,0,0,0,2.1191-6.605c.1155-3.0342-.6888-5.65-3.2873-7.39a7.669,7.669,0,0,0-8.4972-.2067,14.76,14.76,0,0,0-1.677,1.0839c-3.817,2.8558-7.93,3.0759-12.304,1.5093A18.0408,18.0408,0,0,0,7.97,3.9616c-4.7445-.4411-7.6027,3.11-6.0767,7.6309a21.7043,21.7043,0,0,0,2.7334,5.3044A10.1343,10.1343,0,0,1,5.7406,27.2006C2.0751,36.6267,3.8075,45.488,9.4393,53.7115a14.87,14.87,0,0,0,1.1987,1.5893,1.4176,1.4176,0,0,0,1.7447.533,1.5182,1.5182,0,0,0,.7919-1.6569C13.0738,52.1835,12.8839,50.1947,12.7284,48.204Z"/><path class="cls-1" d="M72.3777,6.1932V3.137H89.08L75.8528,31.6985h12.56v3.1H70.9568L84.2991,6.1932Z"/><path class="cls-1" d="M119.23,11.3807V34.7981h-2.9707V30.7732a12.915,12.915,0,0,1-4.2505,3.4654,11.8759,11.8759,0,0,1-13.646-2.4429,12.0874,12.0874,0,0,1-3.5191-8.771,11.8672,11.8672,0,0,1,3.5513-8.6523,11.5794,11.5794,0,0,1,8.5449-3.5948,11.0509,11.0509,0,0,1,5.2193,1.2271,11.8773,11.8773,0,0,1,4.1,3.6807V11.3807Zm-12.0425,2.3027a9.0861,9.0861,0,0,0-8.03,4.709,9.4886,9.4886,0,0,0,.0108,9.459,9.2348,9.2348,0,0,0,3.4077,3.5151,8.9,8.9,0,0,0,4.59,1.2578,9.407,9.407,0,0,0,4.6865-1.247,8.7216,8.7216,0,0,0,3.4073-3.375,9.635,9.635,0,0,0,1.1933-4.7945,9.32,9.32,0,0,0-2.6767-6.7939A8.8659,8.8659,0,0,0,107.1873,13.6834Z"/><path class="cls-1" d="M127.64,2.3406h3.0132V15.5774a12.8011,12.8011,0,0,1,4.0249-3.6049,9.793,9.793,0,0,1,4.7568-1.1949,8.3076,8.3076,0,0,1,4.66,1.3345,7.9609,7.9609,0,0,1,3.0024,3.584,18.9961,18.9961,0,0,1,.9688,7.0488V34.7981h-3.0137V23.6273a28.5657,28.5657,0,0,0-.3227-5.4024,6.1258,6.1258,0,0,0-2.0337-3.4976,6.0247,6.0247,0,0,0-3.8638-1.1728,7.4283,7.4283,0,0,0-4.8965,1.8081,8.4734,8.4734,0,0,0-2.852,4.4766,30.9438,30.9438,0,0,0-.43,6.3711v8.5878H127.64Z"/><path class="cls-1" d="M156.1546,11.3807h3.0132v4.1967a12.5905,12.5905,0,0,1,4.0034-3.6049,9.836,9.836,0,0,1,4.7783-1.1949,8.3076,8.3076,0,0,1,4.66,1.3345,7.9509,7.9509,0,0,1,3.0024,3.5947,19.0094,19.0094,0,0,1,.9688,7.0381V34.7981h-3.0137V23.6273a27.5614,27.5614,0,0,0-.335-5.4024,5.9335,5.9335,0,0,0-2.0093-3.4976,6.0692,6.0692,0,0,0-3.8745-1.1728,7.43,7.43,0,0,0-4.8974,1.8081,8.4721,8.4721,0,0,0-2.8526,4.4766,31.1394,31.1394,0,0,0-.43,6.3711v8.5878h-3.0132Z"/><path class="cls-1" d="M208,11.3807V34.7981h-2.9707V30.7732a12.915,12.915,0,0,1-4.25,3.4654,11.8759,11.8759,0,0,1-13.646-2.4429,12.0873,12.0873,0,0,1-3.519-8.771,11.8675,11.8675,0,0,1,3.5512-8.6523,11.5794,11.5794,0,0,1,8.5449-3.5948,11.0506,11.0506,0,0,1,5.2193,1.2271,11.8773,11.8773,0,0,1,4.1,3.6807V11.3807Zm-12.0425,2.3027a9.0864,9.0864,0,0,0-8.03,4.709,9.4886,9.4886,0,0,0,.0108,9.459,9.2348,9.2348,0,0,0,3.4077,3.5151,8.9,8.9,0,0,0,4.59,1.2578,9.407,9.407,0,0,0,4.6865-1.247,8.721,8.721,0,0,0,3.4073-3.375,9.635,9.635,0,0,0,1.1933-4.7945,9.32,9.32,0,0,0-2.6767-6.7939A8.8659,8.8659,0,0,0,195.9573,13.6834ZM191.9646,2.1253a2.4054,2.4054,0,0,1,1.7647.7319,2.4054,2.4054,0,0,1,.7319,1.7647,2.4057,2.4057,0,0,1-.7319,1.7651,2.4939,2.4939,0,0,1-3.53,0,2.4057,2.4057,0,0,1-.7319-1.7651A2.4054,2.4054,0,0,1,190.2,2.8572,2.4057,2.4057,0,0,1,191.9646,2.1253Zm8.7813,0a2.4057,2.4057,0,0,1,1.7651.7319,2.4055,2.4055,0,0,1,.732,1.7647,2.4057,2.4057,0,0,1-.732,1.7651,2.4939,2.4939,0,0,1-3.53,0,2.4057,2.4057,0,0,1-.7319-1.7651,2.4054,2.4054,0,0,1,.7319-1.7647A2.4054,2.4054,0,0,1,200.7459,2.1253Z"/><path class="cls-1" d="M215.2693,11.3807h3.0781v3.4218a10.811,10.811,0,0,1,2.9058-3.0239,5.7313,5.7313,0,0,1,3.1851-1.001,5.504,5.504,0,0,1,2.6689.7964l-1.5708,2.54a4.1977,4.1977,0,0,0-1.5928-.4092,4.3554,4.3554,0,0,0-2.9057,1.2378,7.8233,7.8233,0,0,0-2.1309,3.8418,36.8156,36.8156,0,0,0-.56,8.0928v7.9208h-3.0781Z"/><path class="cls-1" d="M229.3836,11.3807h17.1977L233.3225,32.1292h12.8282v2.6689H228.1355l13.2461-20.77h-11.998Z"/><path class="cls-1" d="M254.2825,2.6849h3.0137v8.6958h4.7773v2.604h-4.7773V34.7981h-3.0137V13.9847h-4.1113v-2.604h4.1113Z"/><path class="cls-1" d="M287.94,27.0281l2.54,1.3345a13.8675,13.8675,0,0,1-2.8867,3.96,11.469,11.469,0,0,1-3.6846,2.2919,12.8424,12.8424,0,0,1-4.6319.7857,11.1912,11.1912,0,0,1-8.9619-3.7559,12.67,12.67,0,0,1-3.2314-8.4907,12.5186,12.5186,0,0,1,2.7363-7.9424,11.1843,11.1843,0,0,1,9.2852-4.4341,11.5526,11.5526,0,0,1,9.5644,4.5415,12.68,12.68,0,0,1,2.585,8.0069H270.1829a9.533,9.533,0,0,0,2.6074,6.6894,8.3162,8.3162,0,0,0,6.2276,2.6089,10.0027,10.0027,0,0,0,3.48-.622,9.1423,9.1423,0,0,0,2.877-1.6509A14.0728,14.0728,0,0,0,287.94,27.0281Zm0-6.3061a9.9864,9.9864,0,0,0-1.7568-3.8531,8.3249,8.3249,0,0,0-3.0488-2.3247,9.35,9.35,0,0,0-3.9864-.8823,8.5874,8.5874,0,0,0-5.9267,2.2168,10.0188,10.0188,0,0,0-2.7373,4.8433Z"/><path class="cls-1" d="M71.4046,59.5814V44.2454h5.2827a12.8224,12.8224,0,0,1,2.7305.22,5.1949,5.1949,0,0,1,2.249,1.0987,6.2453,6.2453,0,0,1,1.8149,2.62,10.29,10.29,0,0,1,.6016,3.6455,10.71,10.71,0,0,1-.4082,3.0967A7.5131,7.5131,0,0,1,82.6292,57.16a5.5545,5.5545,0,0,1-1.3965,1.3916,5.6933,5.6933,0,0,1-1.8306.7685,10.4277,10.4277,0,0,1-2.4638.2618Zm2.0293-1.81h3.2744a7.9727,7.9727,0,0,0,2.38-.2822,3.4174,3.4174,0,0,0,1.3755-.795,4.8414,4.8414,0,0,0,1.1245-1.9414,9.4791,9.4791,0,0,0,.4028-2.9551,7.1317,7.1317,0,0,0-.79-3.6972,3.9742,3.9742,0,0,0-1.9195-1.7315,7.9378,7.9378,0,0,0-2.6255-.3144H73.4339Z"/><path class="cls-1" d="M88.971,59.5814V48.472h1.6948v1.6845a4.6046,4.6046,0,0,1,1.1978-1.5595,2.0913,2.0913,0,0,1,1.2085-.376,3.6746,3.6746,0,0,1,1.935.6064l-.6484,1.7471a2.6921,2.6921,0,0,0-1.3809-.4082,1.79,1.79,0,0,0-1.1089.3721,2.0079,2.0079,0,0,0-.7011,1.03,7.3353,7.3353,0,0,0-.3135,2.1962v5.8165Z"/><path class="cls-1" d="M97.8347,59.5814V57.4368h2.1446v2.1446Z"/><path class="cls-1" d="M116.8372,59.5814l-4.0689-15.336H114.85l2.3325,10.0527q.3772,1.5807.6489,3.1387.5853-2.458.6905-2.8349L121.44,44.2454h2.4478l2.1967,7.7627a41.2419,41.2419,0,0,1,1.1929,5.4287q.2922-1.453.7632-3.3369l2.4063-9.8545h2.04l-4.2056,15.336h-1.956l-3.2324-11.6846q-.408-1.4649-.4815-1.8-.24,1.0577-.45,1.8l-3.2534,11.6846Z"/><path class="cls-1" d="M136.5066,46.4114v-2.166h1.8828v2.166Zm0,13.17V48.472h1.8828V59.5814Z"/><path class="cls-1" d="M143.6121,59.5814V48.472h1.6948v1.5791a3.9942,3.9942,0,0,1,3.5357-1.83,4.642,4.642,0,0,1,1.8462.36,2.9081,2.9081,0,0,1,1.2607.9472,3.6409,3.6409,0,0,1,.5859,1.3916,10.8111,10.8111,0,0,1,.1045,1.83v6.8311h-1.8828V52.8235a5.072,5.072,0,0,0-.22-1.7207,1.8112,1.8112,0,0,0-.7793-.91,2.48,2.48,0,0,0-1.313-.34,3.0528,3.0528,0,0,0-2.0767.7637,3.7673,3.7673,0,0,0-.873,2.8975v6.0674Z"/><path class="cls-1" d="M158.3338,59.5814V49.9368h-1.6631V48.472h1.6631V47.2894a5.167,5.167,0,0,1,.1992-1.6631,2.4064,2.4064,0,0,1,.957-1.1875,3.4538,3.4538,0,0,1,1.9195-.4551,9.2627,9.2627,0,0,1,1.7573.1885l-.2822,1.6426a6.3534,6.3534,0,0,0-1.1089-.1045,1.649,1.649,0,0,0-1.2134.3662,1.9835,1.9835,0,0,0-.356,1.37V48.472h2.1656v1.4648h-2.1656v9.6446Z"/><path class="cls-1" d="M166.1717,59.5814V48.472h1.6948v1.6845a4.6058,4.6058,0,0,1,1.1977-1.5595,2.0918,2.0918,0,0,1,1.2085-.376,3.6749,3.6749,0,0,1,1.9351.6064l-.6484,1.7471a2.6921,2.6921,0,0,0-1.3809-.4082,1.79,1.79,0,0,0-1.1089.3721,2.0087,2.0087,0,0,0-.7012,1.03,7.3386,7.3386,0,0,0-.3134,2.1962v5.8165Z"/><path class="cls-1" d="M175.6941,46.4114v-2.166h1.8828v2.166Zm0,13.17V48.472h1.8828V59.5814Z"/><path class="cls-1" d="M190.4051,56.0042l1.9458.24a4.7458,4.7458,0,0,1-1.7051,2.6465,5.7771,5.7771,0,0,1-7.0454-.5595,5.8675,5.8675,0,0,1-1.4278-4.211,6.14,6.14,0,0,1,1.4434-4.3515,4.8861,4.8861,0,0,1,3.7451-1.5479,4.7523,4.7523,0,0,1,3.6406,1.5166,6.0279,6.0279,0,0,1,1.4122,4.2686c0,.1113-.004.2783-.0108.5019h-8.2847a4.269,4.269,0,0,0,1.0357,2.8037,3.0819,3.0819,0,0,0,2.3223.9727,2.8826,2.8826,0,0,0,1.7675-.544A3.6111,3.6111,0,0,0,190.4051,56.0042Zm-6.1822-3.0449h6.2032a3.762,3.762,0,0,0-.7115-2.1026,2.8874,2.8874,0,0,0-2.3325-1.0878,2.9942,2.9942,0,0,0-2.1811.8681A3.4364,3.4364,0,0,0,184.2229,52.9593Z"/><path class="cls-1" d="M204.2791,59.5814V58.18a3.4552,3.4552,0,0,1-3.1069,1.6523A4.3545,4.3545,0,0,1,198.73,59.1a4.8188,4.8188,0,0,1-1.7261-2.0449,7.0627,7.0627,0,0,1-.6118-3.0176,7.899,7.899,0,0,1,.5542-3.0185,4.3736,4.3736,0,0,1,1.6636-2.0762,4.4423,4.4423,0,0,1,2.479-.7217,3.6948,3.6948,0,0,1,1.7885.4238,3.7351,3.7351,0,0,1,1.2764,1.1035V44.2454h1.8726v15.336Zm-5.9522-5.544a4.8232,4.8232,0,0,0,.9,3.19,2.7136,2.7136,0,0,0,2.1236,1.0567,2.6631,2.6631,0,0,0,2.0971-1.01,4.6554,4.6554,0,0,0,.8633-3.081,5.2211,5.2211,0,0,0-.8789-3.3467,2.7017,2.7017,0,0,0-2.1655-1.0674,2.6079,2.6079,0,0,0-2.0972,1.0254A5.059,5.059,0,0,0,198.3269,54.0374Z"/><path class="cls-1" d="M227.0691,53.5667v-1.8l6.4961-.0107v5.6914a11.488,11.488,0,0,1-3.0859,1.7939,9.1662,9.1662,0,0,1-3.2637.6016,8.7029,8.7029,0,0,1-4.1059-.9678,6.4,6.4,0,0,1-2.7881-2.7988,8.8079,8.8079,0,0,1-.9414-4.09,9.4834,9.4834,0,0,1,.9365-4.1787,6.2214,6.2214,0,0,1,2.6933-2.8818,8.4385,8.4385,0,0,1,4.0484-.9424,8.0189,8.0189,0,0,1,3.0078.5391,4.99,4.99,0,0,1,2.1079,1.5009,6.6648,6.6648,0,0,1,1.1611,2.5108l-1.83.5019a5.6888,5.6888,0,0,0-.8579-1.8408,3.521,3.521,0,0,0-1.4649-1.0723,5.3685,5.3685,0,0,0-2.1128-.4023,6.2246,6.2246,0,0,0-2.4062.4229,4.5055,4.5055,0,0,0-1.6372,1.1142,5.33,5.33,0,0,0-.9673,1.5176,8.022,8.022,0,0,0-.586,3.0859,7.4892,7.4892,0,0,0,.7061,3.4307,4.5171,4.5171,0,0,0,2.0557,2.0508,6.3627,6.3627,0,0,0,2.8662.6689,6.8137,6.8137,0,0,0,2.5732-.5068,6.6465,6.6465,0,0,0,1.9038-1.083V53.5667Z"/><path class="cls-1" d="M245.9222,58.2112a7.0092,7.0092,0,0,1-2.0137,1.2549,5.8169,5.8169,0,0,1-2.0767.3662,4.0374,4.0374,0,0,1-2.8139-.8945,2.9508,2.9508,0,0,1-.9834-2.2852,3.0954,3.0954,0,0,1,1.3442-2.5732,4.5385,4.5385,0,0,1,1.355-.6172,13.446,13.446,0,0,1,1.6738-.2832,17.1889,17.1889,0,0,0,3.3579-.6484c.0068-.2578.01-.4219.01-.4912a2.08,2.08,0,0,0-.5337-1.6221,3.1532,3.1532,0,0,0-2.1441-.6377,3.3239,3.3239,0,0,0-1.9614.4658,2.8383,2.8383,0,0,0-.9365,1.6475l-1.8408-.251a4.5525,4.5525,0,0,1,.8261-1.9092,3.61,3.61,0,0,1,1.6631-1.1191,7.4172,7.4172,0,0,1,2.5215-.3926,6.6579,6.6579,0,0,1,2.3115.335,3.0427,3.0427,0,0,1,1.3076.8418,2.9642,2.9642,0,0,1,.586,1.2812,10.574,10.574,0,0,1,.0942,1.7363v2.5108a26.7006,26.7006,0,0,0,.12,3.3213,4.188,4.188,0,0,0,.4761,1.334h-1.9668A3.9909,3.9909,0,0,1,245.9222,58.2112Zm-.1568-4.205a13.8651,13.8651,0,0,1-3.0757.7109,7.0931,7.0931,0,0,0-1.6425.3769,1.6366,1.6366,0,0,0-.7427.6114,1.666,1.666,0,0,0,.3086,2.15,2.4575,2.4575,0,0,0,1.6684.5019,3.8843,3.8843,0,0,0,1.9356-.4765,2.9307,2.9307,0,0,0,1.2446-1.3018,4.5515,4.5515,0,0,0,.3037-1.8828Zm-5.5444-7.71V44.1517h1.9668v2.1445Zm3.9018,0V44.1517H246.09v2.1445Z"/><path class="cls-1" d="M252.9241,59.5814V48.472h1.6943v1.6845a4.6134,4.6134,0,0,1,1.1983-1.5595,2.0875,2.0875,0,0,1,1.208-.376,3.6707,3.6707,0,0,1,1.9346.6064l-.6485,1.7471a2.6877,2.6877,0,0,0-1.3808-.4082,1.7885,1.7885,0,0,0-1.1084.3721,2.0075,2.0075,0,0,0-.7012,1.03,7.3353,7.3353,0,0,0-.3135,2.1962v5.8165Z"/><path class="cls-1" d="M266.5472,57.8968l.2714,1.664a6.9853,6.9853,0,0,1-1.4218.167,3.23,3.23,0,0,1-1.5909-.3242,1.815,1.815,0,0,1-.7949-.8525,6.7546,6.7546,0,0,1-.23-2.2227V49.9368h-1.3808V48.472h1.3808V45.721l1.8721-1.13V48.472h1.8936v1.4648h-1.8936v6.4961a3.27,3.27,0,0,0,.1,1.0352.7837.7837,0,0,0,.3242.3662,1.25,1.25,0,0,0,.6436.1357A6.1287,6.1287,0,0,0,266.5472,57.8968Z"/><path class="cls-1" d="M270.7444,59.5814V48.472h1.6944v1.5791a3.996,3.996,0,0,1,3.5361-1.83,4.6444,4.6444,0,0,1,1.8467.36,2.9111,2.9111,0,0,1,1.2607.9472,3.6414,3.6414,0,0,1,.585,1.3916,10.6881,10.6881,0,0,1,.1054,1.83v6.8311h-1.8838V52.8235a5.072,5.072,0,0,0-.22-1.7207,1.8108,1.8108,0,0,0-.7793-.91,2.4782,2.4782,0,0,0-1.3125-.34,3.0511,3.0511,0,0,0-2.0761.7637,3.7628,3.7628,0,0,0-.8741,2.8975v6.0674Z"/><path class="cls-1" d="M292.6214,56.0042l1.9453.24a4.7458,4.7458,0,0,1-1.7051,2.6465,5.7764,5.7764,0,0,1-7.0449-.5595,5.8656,5.8656,0,0,1-1.4287-4.211,6.1377,6.1377,0,0,1,1.4443-4.3515,4.884,4.884,0,0,1,3.7451-1.5479,4.75,4.75,0,0,1,3.64,1.5166,6.0279,6.0279,0,0,1,1.4121,4.2686c0,.1113-.0029.2783-.01.5019h-8.2851a4.2734,4.2734,0,0,0,1.0351,2.8037,3.0842,3.0842,0,0,0,2.3223.9727,2.8854,2.8854,0,0,0,1.7685-.544A3.6215,3.6215,0,0,0,292.6214,56.0042Zm-6.1826-3.0449h6.2031a3.7659,3.7659,0,0,0-.711-2.1026,2.89,2.89,0,0,0-2.333-1.0878,2.9914,2.9914,0,0,0-2.1806.8681A3.4344,3.4344,0,0,0,286.4388,52.9593Z"/><path class="cls-1" d="M299.2679,59.5814V48.472h1.6943v1.6845A4.6121,4.6121,0,0,1,302.16,48.597a2.088,2.088,0,0,1,1.208-.376,3.6707,3.6707,0,0,1,1.9346.6064l-.6484,1.7471a2.688,2.688,0,0,0-1.3809-.4082,1.789,1.789,0,0,0-1.1084.3721,2.0087,2.0087,0,0,0-.7012,1.03,7.3386,7.3386,0,0,0-.3134,2.1962v5.8165Z"/><path class="cls-1" d="M324.3694,59.5814V57.95a4.0677,4.0677,0,0,1-3.5254,1.8828,4.4766,4.4766,0,0,1-1.8359-.3769,3.023,3.023,0,0,1-1.2656-.9463,3.53,3.53,0,0,1-.5811-1.3965,9.52,9.52,0,0,1-.1152-1.7578V48.472h1.8828v6.1611a11.0451,11.0451,0,0,0,.1152,1.9883,1.9651,1.9651,0,0,0,.7539,1.166,2.3323,2.3323,0,0,0,1.4219.4238,3.0976,3.0976,0,0,0,1.5908-.4345,2.4144,2.4144,0,0,0,1.0508-1.1817,5.9271,5.9271,0,0,0,.3086-2.1709V48.472h1.8828V59.5814Z"/><path class="cls-1" d="M331.36,59.5814V48.472h1.6943v1.5791a3.996,3.996,0,0,1,3.5361-1.83,4.6441,4.6441,0,0,1,1.8467.36,2.9111,2.9111,0,0,1,1.2607.9472,3.6383,3.6383,0,0,1,.585,1.3916,10.6852,10.6852,0,0,1,.1055,1.83v6.8311h-1.8838V52.8235a5.0746,5.0746,0,0,0-.22-1.7207,1.8112,1.8112,0,0,0-.7793-.91,2.4787,2.4787,0,0,0-1.3125-.34,3.0512,3.0512,0,0,0-2.0762.7637,3.7632,3.7632,0,0,0-.874,2.8975v6.0674Z"/><path class="cls-1" d="M352.8391,59.5814V58.18a3.4569,3.4569,0,0,1-3.1074,1.6523,4.3561,4.3561,0,0,1-2.4424-.7324,4.8168,4.8168,0,0,1-1.7265-2.0449,7.0776,7.0776,0,0,1-.6114-3.0176,7.8914,7.8914,0,0,1,.5547-3.0185,4.3738,4.3738,0,0,1,1.6631-2.0762,4.4444,4.4444,0,0,1,2.48-.7217,3.6932,3.6932,0,0,1,1.7881.4238,3.7416,3.7416,0,0,1,1.2764,1.1035V44.2454h1.873v15.336Zm-5.9521-5.544a4.826,4.826,0,0,0,.8994,3.19,2.7132,2.7132,0,0,0,2.1231,1.0567,2.6634,2.6634,0,0,0,2.0976-1.01,4.6554,4.6554,0,0,0,.8633-3.081,5.2217,5.2217,0,0,0-.8789-3.3467,2.7015,2.7015,0,0,0-2.1651-1.0674,2.6091,2.6091,0,0,0-2.0976,1.0254A5.0592,5.0592,0,0,0,346.887,54.0374Z"/><path class="cls-1" d="M368.3694,59.5814V44.2454h2.0293v7.6055l7.6152-7.6055h2.751l-6.4326,6.2139,6.7158,9.1221h-2.6787L372.91,51.82l-2.5108,2.4473v5.3145Z"/><path class="cls-1" d="M384.1575,54.0267a5.7261,5.7261,0,0,1,1.7158-4.5713,5.1673,5.1673,0,0,1,3.4942-1.2344,4.9841,4.9841,0,0,1,3.7451,1.501,5.7147,5.7147,0,0,1,1.4541,4.1474,7.3536,7.3536,0,0,1-.6436,3.3741,4.5522,4.5522,0,0,1-1.872,1.9091,5.4585,5.4585,0,0,1-2.6836.68,4.9909,4.9909,0,0,1-3.7715-1.4961A5.9735,5.9735,0,0,1,384.1575,54.0267Zm1.9356,0a4.732,4.732,0,0,0,.9306,3.1953,3.1,3.1,0,0,0,4.6768-.0049,4.8461,4.8461,0,0,0,.9306-3.2529,4.5922,4.5922,0,0,0-.9365-3.1231,3.1046,3.1046,0,0,0-4.6709-.0049A4.7126,4.7126,0,0,0,386.0931,54.0267Z"/><path class="cls-1" d="M399.0882,59.5814V44.2454h1.8828v15.336Z"/><path class="cls-1" d="M406.2044,59.5814V44.2454h1.8828v15.336Z"/><path class="cls-1" d="M420.9681,56.0042l1.9453.24a4.7458,4.7458,0,0,1-1.7051,2.6465,5.7764,5.7764,0,0,1-7.0449-.5595,5.8656,5.8656,0,0,1-1.4287-4.211,6.1377,6.1377,0,0,1,1.4443-4.3515,4.8838,4.8838,0,0,1,3.7451-1.5479,4.75,4.75,0,0,1,3.64,1.5166,6.0279,6.0279,0,0,1,1.4121,4.2686c0,.1113-.003.2783-.01.5019h-8.2852a4.274,4.274,0,0,0,1.0352,2.8037,3.0842,3.0842,0,0,0,2.3223.9727,2.8856,2.8856,0,0,0,1.7685-.544A3.6215,3.6215,0,0,0,420.9681,56.0042Zm-6.1827-3.0449h6.2032a3.7666,3.7666,0,0,0-.711-2.1026,2.89,2.89,0,0,0-2.333-1.0878,2.9918,2.9918,0,0,0-2.1807.8681A3.4348,3.4348,0,0,0,414.7854,52.9593Z"/><path class="cls-1" d="M427.29,60.5023l1.83.2714a1.7414,1.7414,0,0,0,.6387,1.2344,3.1324,3.1324,0,0,0,1.914.5234,3.3594,3.3594,0,0,0,2.0186-.5234,2.5755,2.5755,0,0,0,.9629-1.4648,12.0315,12.0315,0,0,0,.1357-2.416,3.8715,3.8715,0,0,1-3.0752,1.4541,4.1947,4.1947,0,0,1-3.5469-1.6524,6.3665,6.3665,0,0,1-1.2548-3.9648,7.3757,7.3757,0,0,1,.5752-2.9346,4.598,4.598,0,0,1,1.6689-2.0762,4.5034,4.5034,0,0,1,2.5674-.7324,3.9836,3.9836,0,0,1,3.2432,1.59V48.472h1.7363v9.6025a9.1064,9.1064,0,0,1-.5283,3.6778,3.8616,3.8616,0,0,1-1.6729,1.71,5.7964,5.7964,0,0,1-2.8193.6279,5.3153,5.3153,0,0,1-3.2119-.8945A3.0244,3.0244,0,0,1,427.29,60.5023Zm1.5586-6.6749a4.8208,4.8208,0,0,0,.8682,3.1915,2.8642,2.8642,0,0,0,4.3515.0048,4.6607,4.6607,0,0,0,.8789-3.1328,4.5552,4.5552,0,0,0-.9052-3.0761,2.7973,2.7973,0,0,0-2.1807-1.0352,2.7167,2.7167,0,0,0-2.1338,1.02A4.53,4.53,0,0,0,428.8489,53.8274Z"/><path class="cls-1" d="M449.512,56.0042l1.9453.24a4.7452,4.7452,0,0,1-1.7051,2.6465,5.7764,5.7764,0,0,1-7.0449-.5595,5.8661,5.8661,0,0,1-1.4287-4.211,6.1377,6.1377,0,0,1,1.4443-4.3515,4.884,4.884,0,0,1,3.7452-1.5479,4.75,4.75,0,0,1,3.64,1.5166,6.0279,6.0279,0,0,1,1.4121,4.2686c0,.1113-.0029.2783-.01.5019h-8.2851a4.2734,4.2734,0,0,0,1.0351,2.8037,3.0844,3.0844,0,0,0,2.3223.9727,2.8859,2.8859,0,0,0,1.7686-.544A3.6207,3.6207,0,0,0,449.512,56.0042Zm-6.1826-3.0449h6.2031a3.7667,3.7667,0,0,0-.7109-2.1026,2.89,2.89,0,0,0-2.333-1.0878,2.9917,2.9917,0,0,0-2.1807.8681A3.4348,3.4348,0,0,0,443.3294,52.9593Z"/><path class="cls-1" d="M456.178,59.5814V48.472h1.6943v1.5791a3.9963,3.9963,0,0,1,3.5362-1.83,4.6444,4.6444,0,0,1,1.8467.36,2.9111,2.9111,0,0,1,1.2607.9472,3.6414,3.6414,0,0,1,.585,1.3916,10.6881,10.6881,0,0,1,.1054,1.83v6.8311h-1.8838V52.8235a5.072,5.072,0,0,0-.22-1.7207,1.8108,1.8108,0,0,0-.7793-.91,2.4782,2.4782,0,0,0-1.3125-.34,3.0516,3.0516,0,0,0-2.0762.7637,3.7632,3.7632,0,0,0-.874,2.8975v6.0674Z"/></g></g></svg>