<svg xmlns="http://www.w3.org/2000/svg" id="Ebene_2" data-name="Ebene 2" viewBox="0 0 3400 3400"><defs><style>      .cls-1 {        fill: #dedc00;      }      .cls-1, .cls-2 {        stroke-width: 0px;      }      .cls-2 {        fill: #fff;      }    </style></defs><g id="gerendert"><circle id="dedc00" class="cls-1" cx="1700" cy="1700" r="1700"></circle><g id="R_abgerundet_original" data-name="R abgerundet original"><path class="cls-2" d="m2389.66,1994h0c-21.8-32.32-10.63-76.49,24.01-94.39,91.15-47.1,172.68-110.21,240.88-185.61,136.38-150.77,219.45-350.68,219.45-570,0-469.44-380.56-850-850-850h0s-815,0-815,0c-96.65,0-175,78.35-175,175v254.7c0,.17-.14.31-.31.31h-254.69c-96.65,0-175,78.35-175,175v1066.9s0,28.1,0,28.1h0v665c0,96.65,78.35,175,175,175h360c96.65,0,175-78.35,175-175v-665s0-280,0-280v-45.04s0,0,0,0c0-57.97,46.99-104.96,104.96-104.96h605.05c24.38,0,48.28-2.09,71.52-6.07,197.89-33.95,348.48-206.35,348.48-413.93,0-231.96-188.04-420-420-420h-635c-41.42,0-75-33.58-75-75h0c0-41.42,33.58-75,75-75h635c314.8,0,570,255.2,570,570,0,258.82-172.5,477.34-408.8,546.88-51.12,15.04-105.21,23.12-161.2,23.12h-515.1c-48.32,0-87.5,39.18-87.5,87.5,0,17.14,4.93,33.12,13.45,46.62l98.4,145.88,514.55,762.86c32.53,48.23,86.91,77.14,145.08,77.14h434.24c140.2,0,223.48-156.63,145.08-272.86l-382.54-567.14Zm-1355.66,485c0,41.42-33.58,75-75,75h0c-41.42,0-75-33.58-75-75v-1400c0-41.42,33.58-75,75-75h0c41.42,0,75,33.58,75,75v1400Zm420-1475h173.9s396.07,0,396.07,0c0,0,.02,0,.03,0,75.28,0,136.67,59.41,139.87,133.9,3.43,79.9-61.61,146.1-141.58,146.1h-568.29c-77.32,0-140-62.68-140-140h0c0-77.32,62.68-140,140-140Zm834.59,1550h0c-24.93,0-48.24-12.39-62.18-33.06l-276.55-410c-33.6-49.81,2.09-116.94,62.18-116.94h0c24.93,0,48.24,12.39,62.18,33.06l276.55,410c33.6,49.81-2.09,116.94-62.18,116.94Z"></path></g></g></svg>